<?xml version="1.0" encoding="UTF-8" standalone="no"?>
<!-- Created with Inkscape (http://www.inkscape.org/) -->

<svg
   width="136.77454mm"
   height="50.912548mm"
   viewBox="0 0 136.77454 50.912548"
   version="1.1"
   id="svg1"
   xml:space="preserve"
   xmlns="http://www.w3.org/2000/svg"
   xmlns:svg="http://www.w3.org/2000/svg"><defs
     id="defs1" /><g
     id="layer1"
     transform="translate(-38.051672,-57.871016)"><path
       style="fill:#000000"
       d="m 105.18634,108.77758 c -0.087,-0.005 -0.3834,-0.0221 -0.65877,-0.0376 -8.068575,-0.45482 -15.601653,-4.7347 -20.081733,-11.409332 -3.2546,-4.84886 -4.70635,-10.52906 -4.17215,-16.3242 0.48897,-5.30444 2.59597,-10.168269 6.19834,-14.308369 0.39527,-0.45428 1.72821,-1.79461 2.19248,-2.20465 2.354868,-2.07979 4.949948,-3.6732 7.826778,-4.80571 2.29042,-0.90166 4.752915,-1.48383 7.232595,-1.7099 1.56207,-0.14241 3.33914,-0.14241 4.90121,0 2.74528,0.25028 5.40648,0.92132 7.95788,2.00664 0.52861,0.22487 1.68427,0.78554 2.22663,1.08026 1.64678,0.89488 3.2642,2.02606 4.75137,3.32298 0.56816,0.49547 1.83558,1.76334 2.3359,2.33673 1.95953,2.2457 3.49253,4.75145 4.55423,7.444039 1.65984,4.20958 2.1401,8.87806 1.3757,13.37293 -0.42116,2.47652 -1.19251,4.81704 -2.32838,7.06506 -2.48033,4.9089 -6.51724,8.915822 -11.49159,11.406252 -3.14941,1.57677 -6.49062,2.47766 -10.11956,2.72854 -0.40235,0.0278 -2.3928,0.0546 -2.70093,0.0363 z M 100.4564,95.036988 v -4.21727 l 1.64033,-1.82832 c 0.90218,-1.00558 1.64625,-1.82895 1.6535,-1.82972 0.007,-7.7e-4 1.85277,2.71678 4.10116,6.039 l 4.08798,6.0404 5.40767,0.007 c 4.67172,0.006 5.4057,0.002 5.39325,-0.0309 -0.008,-0.0207 -2.86713,-4.19166 -6.35378,-9.26889 -3.48665,-5.07723 -6.34213,-9.23858 -6.34551,-9.24743 -0.003,-0.009 2.68556,-3.07382 5.97543,-6.81104 3.28988,-3.737229 6.06271,-6.887119 6.16186,-6.999759 l 0.18027,-0.2048 -5.34499,6.4e-4 -5.34498,6.4e-4 -5.59951,6.600309 -5.5995,6.60031 -0.007,-6.60103 -0.007,-6.601019 -4.512495,0.007 -4.51249,0.007 -0.007,16.245139 c -0.004,8.93483 -0.001,16.25997 0.006,16.27808 0.01,0.0262 0.93808,0.0329 4.51928,0.0329 h 4.506785 z"
       id="path2" /></g></svg>
