<?xml version="1.0" encoding="UTF-8" standalone="no"?>
<!-- Created with Inkscape (http://www.inkscape.org/) -->

<svg
   width="136.77454mm"
   height="37.692909mm"
   viewBox="0 0 136.77454 37.692909"
   version="1.1"
   id="svg1"
   xml:space="preserve"
   xmlns="http://www.w3.org/2000/svg"
   xmlns:svg="http://www.w3.org/2000/svg"><defs
     id="defs1" /><g
     id="layer1"
     transform="translate(-38.051672,-58.834152)"><path
       style="fill:#000000"
       d="m 129.17041,90.595847 c -3.43153,-0.358027 -6.33596,-1.68924 -8.5721,-3.928926 -1.69252,-1.695199 -2.83181,-3.690732 -3.41353,-5.978973 -0.30162,-1.186449 -0.40297,-2.039005 -0.40337,-3.393091 -6.6e-4,-2.205669 0.39918,-3.959408 1.33805,-5.868852 1.31688,-2.678215 3.38832,-4.740311 6.09135,-6.063878 1.02811,-0.503423 1.68883,-0.747454 2.75174,-1.016337 1.23094,-0.311387 1.915,-0.398367 3.3651,-0.42788 1.92289,-0.03914 3.35196,0.161373 4.98714,0.699729 4.78361,1.574929 8.10939,5.399283 8.9878,10.335188 0.16666,0.936474 0.20821,2.969032 0.0806,3.940121 -0.31599,2.403794 -1.12803,4.428414 -2.54178,6.337258 -0.54577,0.736905 -1.86536,2.055638 -2.61401,2.612314 -1.87709,1.395748 -3.95564,2.254756 -6.41992,2.653176 -0.53237,0.08607 -3.0955,0.156652 -3.63703,0.100151 z m 2.71178,-6.499836 c 2.29452,-0.410169 4.14113,-2.043292 4.92179,-4.352788 0.2949,-0.87242 0.35494,-1.280752 0.35595,-2.420813 0.001,-1.121486 -0.0544,-1.516885 -0.33304,-2.378362 -0.46741,-1.444956 -1.4758,-2.781911 -2.70023,-3.580033 -2.21977,-1.446921 -5.2839,-1.365407 -7.3562,0.195696 -0.73252,0.551819 -1.51418,1.496885 -1.94044,2.34609 -0.21474,0.427808 -0.46879,1.191253 -0.60169,1.808136 -0.16993,0.788741 -0.17149,2.250342 -0.003,3.013691 0.83653,3.794919 4.01057,6.020234 7.65708,5.368383 z M 40.311044,77.267304 v -12.86739 h 3.581646 3.581647 l 0.01406,5.190066 0.01406,5.190066 4.404981,-5.190066 4.404981,-5.190066 h 4.243285 4.243286 l -0.140919,0.151543 c -0.896026,0.963579 -9.546888,10.863932 -9.546923,10.925836 -3.3e-5,0.05937 7.759026,11.428303 9.899945,14.505857 l 0.105421,0.151543 h -4.291259 -4.29126 l -2.37774,-3.513045 C 52.848497,84.689473 51.39518,82.542785 50.926659,81.851231 l -0.851854,-1.257372 -1.299951,1.441653 -1.299951,1.441652 v 3.328765 3.328764 h -3.581927 -3.581928 z m 27.002225,0 v -12.86739 h 3.581928 3.581927 v 12.86739 12.867389 h -3.581927 -3.581928 z m 11.847915,-0.0026 v -12.8699 l 6.957206,0.02061 c 7.56544,0.02241 7.376261,0.01513 8.888727,0.342138 1.419056,0.306809 2.877034,0.934632 3.827117,1.648002 0.946154,0.71042 1.805726,1.721534 2.300786,2.706409 0.68188,1.356531 0.98828,3.12971 0.84497,4.889854 -0.17717,2.175887 -0.89463,3.804032 -2.289239,5.194983 -0.688413,0.686607 -1.347878,1.160507 -2.302479,1.654593 l -0.646917,0.334834 2.430738,3.551196 c 1.336907,1.953158 2.714547,3.966562 3.061427,4.474231 l 0.6307,0.923036 H 98.734354 94.604492 L 92.028766,86.249675 89.453039,82.36466 h -1.564 -1.563999 v 3.885015 3.885015 h -3.581928 -3.581928 z m 13.300469,-0.677393 c 1.686928,-0.482072 2.555975,-1.716693 2.35029,-3.338967 C 94.6629,72.07281 94.049913,71.30383 92.94032,70.900431 92.133637,70.607156 91.704269,70.572493 88.873719,70.572132 l -2.548679,-3.24e-4 v 3.089133 3.089133 l 2.851765,-0.0195 c 2.759795,-0.01887 2.865733,-0.02349 3.284848,-0.143263 z m 13.316007,0.679948 v -12.86739 h 3.58193 3.58193 v 12.86739 12.867389 h -3.58193 -3.58193 z m 42.43207,0 v -12.86739 l 3.34773,0.0019 3.34772,0.0019 5.26268,6.767164 5.26268,6.767164 0.014,-6.769085 0.014,-6.769085 h 3.52661 3.5266 v 12.86739 12.867389 l -3.12729,-0.0023 -3.1273,-0.0023 -5.45556,-7.02054 c -3.00055,-3.861297 -5.47415,-7.022003 -5.49688,-7.023791 -0.0227,-0.0018 -0.0413,3.15849 -0.0413,7.022839 v 7.026091 h -3.52682 -3.52682 z"
       id="path1" /></g></svg>
